HIERARCHY
ROOT HipCenter
{
    OFFSET 0.0 0.0 -0.0
    CHANNELS 6 Xposition Yposition Zposition Zrotation Xrotation Yrotation
    JOINT Spine
    {
        OFFSET 0.0 11.759238243103027 0.0
        CHANNELS 3 Zrotation Xrotation Yrotation
        JOINT ShoulderCenter
        {
            OFFSET 0.0 32.58971405029297 0.0
            CHANNELS 3 Zrotation Xrotation Yrotation
            JOINT LeftShoulder
            {
                OFFSET 20.107494354248047 0.0 0.0
                CHANNELS 3 Zrotation Xrotation Yrotation
                JOINT LeftElbow
                {
                    OFFSET 30.087493896484375 0.0 0.0
                    CHANNELS 3 Zrotation Xrotation Yrotation
                    JOINT LeftWrist
                    {
                        OFFSET 30.162750244140625 0.0 0.0
                        CHANNELS 3 Zrotation Xrotation Yrotation
                        JOINT LeftHand
                        {
                            OFFSET 3.6926589012145996 0.0 0.0
                            CHANNELS 3 Zrotation Xrotation Yrotation
                            End Site
                            {
                                OFFSET 1.4770636558532715 0.0 0.0
                            }
                        }
                    }
                }
            }
            JOINT RightShoulder
            {
                OFFSET -20.107494354248047 0.0 0.0
                CHANNELS 3 Zrotation Xrotation Yrotation
                JOINT RightElbow
                {
                    OFFSET -30.087493896484375 0.0 0.0
                    CHANNELS 3 Zrotation Xrotation Yrotation
                    JOINT RightWrist
                    {
                        OFFSET -30.162750244140625 0.0 0.0
                        CHANNELS 3 Zrotation Xrotation Yrotation
                        JOINT RightHand
                        {
                            OFFSET -3.6926589012145996 0.0 0.0
                            CHANNELS 3 Zrotation Xrotation Yrotation
                            End Site
                            {
                                OFFSET -1.4770636558532715 0.0 0.0
                            }
                        }
                    }
                }
            }
            End Site
            {
                OFFSET 0.0 13.035886764526367 0.0
            }
        }
    }
    JOINT LeftHip
    {
        OFFSET 13.975919723510742 0.0 0.0
        CHANNELS 3 Zrotation Xrotation Yrotation
        JOINT LeftKnee
        {
            OFFSET 0.0 -42.941261291503906 0.0
            CHANNELS 3 Zrotation Xrotation Yrotation
            JOINT LeftAnkle
            {
                OFFSET 0.0 -41.82294464111328 0.0
                CHANNELS 3 Zrotation Xrotation Yrotation
                JOINT LeftFoot
                {
                    OFFSET 0.0 -12.520736694335938 0.0
                    CHANNELS 3 Zrotation Xrotation Yrotation
                    End Site
                    {
                        OFFSET 0.0 0.0 5.008294105529785
                    }
                }
            }
        }
    }
    JOINT RightHip
    {
        OFFSET -13.975919723510742 0.0 0.0
        CHANNELS 3 Zrotation Xrotation Yrotation
        JOINT RightKnee
        {
            OFFSET 0.0 -42.941261291503906 0.0
            CHANNELS 3 Zrotation Xrotation Yrotation
            JOINT RightAnkle
            {
                OFFSET 0.0 -41.82294464111328 0.0
                CHANNELS 3 Zrotation Xrotation Yrotation
                JOINT RightFoot
                {
                    OFFSET 0.0 -12.520736694335938 0.0
                    CHANNELS 3 Zrotation Xrotation Yrotation
                    End Site
                    {
                        OFFSET 0.0 0.0 5.008294105529785
                    }
                }
            }
        }
    }
}
MOTION
Frames: 9
Frame Time: 0.03333333333333333
-5.299999713897705 -1.7000000476837158 -11.59999942779541 -5.370994642917553 -1.4623603868039674 9.103241381590674 4.147002980519272 0.8134997533130232 0.010419883685482663 -2.8486939133554596e-08 2.9734085660571307e-09 -2.603666862092624 116.76199540046215 -0.4657110826616261 -159.5147713044233 -7.154460211804493e-08 -1.0773038044657911e-06 57.57639000740575 1.1852261553705632e-06 -81.78898492729672 22.390226729658615 -3.1805546814635164e-15 1.5902773407317584e-15 -6.361109362927033e-15 -117.81095300934714 23.22838356677829 -164.5494251114072 -6.301246291405003e-07 -1.482948353752772e-06 -77.81213992762412 2.367942990750797e-07 -4.544650833417414 -31.37966089961246 -6.3611093629270335e-15 0.0 0.0 5.990507868235503 -10.211776899800055 -9.300214511432886 -11.566631494073533 35.31333123916184 -24.84863009715494 94.87855137068695 -43.793014743542926 135.92426728698953 1.5902773407317582e-15 2.2069531490250793e-32 1.5902773407317582e-15 4.3055065694095225 -15.18219032438468 3.750001187333999 6.525533317714701 46.22163329893408 37.17369229152538 -95.62665394409362 -41.48757107422634 -137.32423663568434 -3.310429723537619e-32 -7.951386703658792e-16 -4.770832022195275e-15
-6.300000190734863 -1.7999999523162842 -11.59999942779541 -4.398705803274527 -0.4882551477467715 6.863154453940311 2.506822652783156 0.18969254192732163 -0.00013961809635133258 2.0233324608181373e-07 -2.5809738750009274e-08 2.4996793543771725 117.87847570596283 5.375091784511348 -163.63760677872241 2.3124464336294914e-06 5.109917240928528e-07 58.11769090007802 -3.899497784270423e-05 -87.10981357081035 23.25198382984542 0.0 0.0 -8.348956038841733e-15 -116.17262336085359 20.067547871059254 -168.78853163414934 -2.019686628850592e-06 7.465088742422882e-07 -77.32249401671069 9.467890429215755e-07 -3.2864426725504217 -30.120940691570905 0.0 0.0 6.361109362927033e-15 5.494244564561335 -12.911710242179577 -6.5968931916798885 -9.912778897883873 40.33881775356659 -30.86087277081566 94.32269038350074 -39.64014117344317 138.14428081905032 0.0 0.0 1.5902773407317584e-15 4.367710138316489 -13.847254497509692 6.406140289810423 8.248195566866258 41.23195812745784 30.54459362269527 -97.42731484251554 -45.07826051308177 -137.33644884659853 1.7655625192200634e-31 -6.3611093629270335e-15 3.1805546814635168e-15
-7.299999713897705 -1.600000023841858 -11.800000190734863 -3.9115702831483863 0.9770425091074428 3.9269025138841345 1.4063476786384301 -0.7235491665192637 0.010527579556107206 -2.5733024482266977e-07 -1.3460189029615857e-08 8.017872740661367 119.27281197130688 11.079400056424229 -167.70603925381903 -2.031449380247083e-06 5.393541796164371e-06 58.328322468886114 -1.546558485759324e-05 -84.47483994655252 23.276200019799138 -3.1805546814635168e-15 -5.517382872562698e-32 1.987846675914698e-15 -115.21739381327829 16.641082449986538 -173.71773556386347 1.6515107610358968e-06 1.737720587619549e-07 -76.12786402515555 1.802219558110056e-06 -3.1031283711522217 -29.47178509676766 0.0 0.0 -1.2722218725854067e-14 5.621183993432838 -16.133693848403247 -4.270447676432757 -7.8684016219617225 45.253454825605424 -36.99510565713957 92.21546550216469 -36.150460970143136 137.78056277186977 0.0 0.0 -5.565970692561156e-15 5.0862452394866295 -14.774403361959077 7.839505102857487 8.273130393726149 39.15186834535892 27.44642178211432 -96.45785279646043 -47.158953109267856 -134.7082096875597 0.0 7.951386703658792e-16 0.0
-8.5 -1.2000000476837158 -12.0 -3.878526020550101 0.9687975541722753 1.9893840639773652 0.1904411715543566 0.25605540508340346 0.006092829973389588 -7.170609110999545e-08 -5.825656722638494e-08 12.498845360495007 121.48925805744985 16.2249488730686 -171.39145811284402 5.095636458947782e-06 -3.1116556330212094e-06 58.90198431301819 1.89584225740933e-05 -87.08766967490737 22.94497547237977 -7.951386703658792e-16 2.4828222926532145e-32 -3.578124016646457e-15 -113.41031843050267 13.940620804136213 -179.2260656787463 -2.5371875120759056e-06 2.1745230550460453e-07 -75.0623068780284 -1.3544943722149458e-08 -5.825693518047123 -30.261297861930753 0.0 0.0 0.0 6.357019022812703 -19.474832358970804 0.36869368261857166 -1.9420134334853079 51.41178910675734 -45.325051744886075 85.16305281423652 -36.47252761020668 127.77558455571184 -1.8759101766713175e-31 6.7586786981099735e-15 3.1805546814635168e-15 5.703543351539493 -14.331840470315434 8.303305535364206 7.4614331336341255 37.755084308183 27.726153674695556 -94.17183355027775 -49.116750459895066 -132.98202088368743 0.0 -1.2722218725854067e-14 0.0
-9.5 -0.6000000238418579 -12.199999809265137 -2.9356706347851627 1.9554980728175924 2.647834956229299 -1.644883011126376 -0.12206935881497208 -0.0053852725315697274 -2.9523517315697913e-08 -8.254193946012454e-08 15.14447859879865 122.73160729950713 20.728845777416 -174.00202760901203 -2.39590300375273e-07 5.931155654158103e-06 58.664399360703406 -1.2147642513498956e-05 -84.37326877269766 22.820495063077505 7.951386703658791e-16 -1.3793457181406746e-32 -1.9878466759146976e-15 -112.67306763785328 11.712360082223293 176.7320175385243 1.0226857570688317e-06 -8.958708322277977e-07 -74.90965051770021 -1.8373770910711046e-06 -5.123787098649905 -30.2869899744372 0.0 -3.1805546814635168e-15 0.0 6.199367641278366 -26.455082496345415 8.506530316672059 13.390725205673833 58.54439669939526 -64.48267893264702 75.50858025835936 -37.49453800217691 112.88600978693057 0.0 0.0 4.770832022195275e-15 4.897969584556736 -13.745000342225353 10.648666179637976 9.134286955354124 34.238136681205 24.48147829405691 -91.90297353076082 -49.454997159317216 -130.77655230783435 -3.1805546814635156e-15 -4.4139062980501586e-32 1.5902773407317578e-15
-10.300000190734863 -0.10000000149011612 -12.399999618530273 -2.4263358351320408 2.9082295546086017 4.518574125813649 -2.7265497185868957 -0.4030259017740699 -0.011641920724854543 -3.4039087509271844e-07 -1.7231504666739116e-07 17.724012672350785 123.67428632571813 22.948987960453472 -175.5260853561111 3.3924820163803014e-06 4.976828315720081e-06 58.31562202401191 -6.8474389510728264e-06 -85.84374814843007 24.50305336472851 -7.951386703658792e-16 -1.517280289954742e-32 2.1866313435061676e-15 -113.2977535024354 10.332194803269834 173.53992062239007 9.876572299220255e-07 1.3743996668240478e-06 -75.42270076246241 1.9738979691203947e-06 -5.819823956384023 -31.31792022817443 0.0 -6.3611093629270335e-15 0.0 5.286775942936369 -35.25157857854354 19.95666305300399 43.928409987497034 59.34112117650963 -97.85038168205435 64.90243999180929 -37.37294953823018 98.73014050771336 3.975693351829396e-16 4.138037154422024e-33 1.1927080055488188e-15 4.7970245264940745 -13.104875312778876 11.981919871835409 9.221239702020961 30.333115095821658 20.49548909277693 -90.23304058727214 -50.072457861432696 -128.2215951357289 -1.1034765745125397e-32 7.951386703658792e-16 1.5902773407317584e-15
-10.899999618530273 0.6000000238418579 -12.600000381469727 -0.979318681279876 3.4233716696445526 5.448889028399908 -4.883135788498849 -0.31240212363292513 -0.014087141541117036 1.0246059369767662e-07 -1.6397672889770162e-07 21.79093700898122 123.51925679956153 25.470809901532096 -176.21406234609188 -4.647278017395373e-07 4.099048042713818e-06 58.34152652070044 -3.3352649849070106e-06 -84.71391326784392 24.56407411731319 9.939233379573492e-17 6.361109362927035e-15 4.969616689786745e-17 -115.04269317862337 8.81416640404829 169.56364964731426 5.907508941333412e-07 -1.5610720224444646e-06 -75.0275015629171 2.465835329690758e-06 -6.772279570643605 -31.260166697264236 6.3611093629270335e-15 -1.7655625192200634e-31 -3.1805546814635168e-15 2.9911813432002314 -42.87346974490681 27.328352785443716 64.42043574270429 55.38636419652326 -118.51119630891257 61.85065449800292 -38.234736377556374 94.98097935919343 3.975693351829396e-16 -6.896728590703373e-34 -1.987846675914698e-16 4.051745200229524 -11.789047652365179 13.926720934686578 8.530020469423372 26.751442181339996 18.352683059568434 -88.74792412172654 -48.86520709715853 -128.2931679584106 0.0 0.0 -1.5902773407317584e-15
-11.5 1.4000000953674316 -12.700000762939453 -0.9710211097592624 3.8779703471797524 6.811966959147672 -5.446444443644789 -0.22309388907205305 -0.014218150157826463 1.70770251872412e-07 -3.7169832559158815e-08 24.677014763119175 123.97596622490681 27.35917937047624 -178.8105501205732 2.5343900987651766e-06 2.7137560564305227e-06 59.87132877894316 -6.914019867545897e-06 -86.24771605130331 22.734007760988828 0.0 0.0 -1.9878466759146977e-16 -116.19343581545002 7.476297316534396 165.8027369176925 1.4055905439917544e-07 -1.3812386720692518e-06 -75.66904074290599 -8.381985289963863e-07 -5.30268570645263 -29.92281809450183 0.0 0.0 0.0 0.023517891402346607 -50.57846717634697 30.224424412366524 77.13822579222037 50.22999650667796 -128.28023864011334 60.057246438350376 -40.51795790165416 94.94170079686236 0.0 0.0 1.1927080055488188e-15 4.598405477558875 -10.430581210616984 15.978750528260914 7.561058103532355 22.887160013097834 16.385350940126212 -87.0711562341201 -47.53790883096981 -128.96592724988326 -3.1805546814635164e-15 -7.95138670365879e-15 -2.2069531490250793e-31
-12.0 2.0 -12.800000190734863 -0.489692749523561 4.885024967610451 9.117929041965786 -6.775404176060931 -0.8017777346906201 -0.07720549545295584 -2.9399950638986853e-07 -1.3040834131440138e-07 26.4504587357381 125.22830220401244 28.981250326434477 178.12894492037273 -2.004828433939892e-06 -2.607548715524286e-07 60.92675247924202 -179.99932676312105 -89.84214950075437 -157.59611948014472 0.0 -6.3611093629270335e-15 0.0 -117.85262127718384 5.836337749043062 161.79439377279368 2.2176793802895367e-06 9.731243989873563e-07 -75.43693037138243 1.563687104187836e-06 -6.531966529088584 -29.117129431945735 1.7655625192200634e-31 6.3611093629270335e-15 -3.1805546814635168e-15 -7.568396592338697 -58.90224906147239 27.482670799054798 86.3595759414786 45.523784920974975 -131.7979163338061 58.49758195444738 -45.172090031374616 96.6143470310242 -1.7241821476758432e-33 1.987846675914698e-16 9.93923337957349e-16 4.399244146003981 -10.307584765057276 16.40400818197762 6.744234674514032 20.66831859056556 15.441730121228678 -86.26356585717676 -45.18544319198171 -130.7978586064596 -3.531125038440127e-31 -6.361109362927033e-15 -6.361109362927033e-15
